#N canvas -11 169 560 536 12;
#X obj 115 237 tabplay~;
#X obj 152 156 makefilename buf%d;
#X obj 152 181 list prepend set;
#X obj 151 206 list trim;
#X obj 115 130 t b f;
#X obj 114 278 *~;
#X obj 361 185 / 127;
#X obj 112 441 outlet~;
#X obj 116 17 inlet;
#X obj 116 86 unpack f f f;
#X text 219 85 buf id \, length \, vel;
#X obj 323 243 array define buf\$1;
#X obj 188 278 r all_off;
#X obj 118 384 *~;
#X obj 113 413 hip~ 5;
#X obj 153 356 line~ 1;
#X msg 141 317 1;
#X obj 188 323 pack 0 100;
#X obj 323 277 r fade_dur;
#X obj 302 322 del;
#X msg 302 348 stop;
#X obj 116 49 t l b;
#X connect 0 0 5 0;
#X connect 1 0 2 0;
#X connect 2 0 3 0;
#X connect 3 0 0 0;
#X connect 4 0 0 0;
#X connect 4 1 1 0;
#X connect 5 0 13 0;
#X connect 6 0 5 1;
#X connect 8 0 21 0;
#X connect 9 0 4 0;
#X connect 9 2 6 0;
#X connect 12 0 17 0;
#X connect 12 0 19 0;
#X connect 13 0 14 0;
#X connect 14 0 7 0;
#X connect 15 0 13 1;
#X connect 16 0 15 0;
#X connect 17 0 15 0;
#X connect 18 0 17 1;
#X connect 18 0 19 1;
#X connect 19 0 20 0;
#X connect 20 0 0 0;
#X connect 21 0 9 0;
#X connect 21 1 16 0;
