#N canvas 0 169 1219 536 12;
#X obj 115 237 tabplay~;
#X obj 152 181 list prepend set;
#X obj 151 206 list trim;
#X obj 115 130 t b f;
#X obj 114 278 *~;
#X obj 364 234 / 127;
#X obj 113 480 outlet~;
#X obj 116 17 inlet;
#X obj 944 56 r all_off;
#X obj 118 384 *~;
#X obj 153 356 line~ 1;
#X msg 141 317 1;
#X obj 944 101 pack 0 100;
#X obj 1079 55 r fade_dur;
#X obj 1058 100 del;
#X msg 1058 126 stop;
#X obj 116 49 t l b;
#X obj 116 86 unpack f f f f;
#X floatatom 280 120 5 0 0 0 - - -, f 5;
#X text 267 77 buf id \, length \, vel \, ch;
#X obj 152 156 makefilename buf%d_l;
#X obj 944 129 s \$0-fade;
#X obj 1058 158 s \$0-delstop;
#X obj 179 318 r \$0-fade;
#X obj 188 236 r \$0-delstop;
#X obj 507 236 tabplay~;
#X obj 544 180 list prepend set;
#X obj 543 205 list trim;
#X obj 507 129 t b f;
#X obj 506 277 *~;
#X obj 725 184 / 127;
#X obj 510 383 *~;
#X obj 545 355 line~ 1;
#X msg 533 316 1;
#X obj 508 48 t l b;
#X obj 508 85 unpack f f f f;
#X floatatom 672 119 5 0 0 0 - - -, f 5;
#X text 659 76 buf id \, length \, vel \, ch;
#X obj 571 317 r \$0-fade;
#X obj 580 235 r \$0-delstop;
#X obj 544 155 makefilename buf%d_r;
#X obj 505 484 outlet~;
#X obj 310 312 == 1;
#X obj 295 395 *~;
#N canvas 0 23 519 371 vel_sens 0;
#X obj 136 46 inlet;
#X obj 131 257 outlet;
#X obj 124 175 max 127;
#X msg 192 183 0;
#X msg 191 159 127;
#X text 224 159 off;
#X text 228 181 on;
#X obj 193 127 sel 0 1;
#X obj 195 104 tgl 15 0 empty empty empty 17 7 0 10 -262144 -1 -1 1
1;
#X text 213 101 velocity sensitivity on/off;
#X obj 201 48 r velocity_sensitive;
#X connect 0 0 2 0;
#X connect 2 0 1 0;
#X connect 3 0 2 1;
#X connect 4 0 2 1;
#X connect 7 0 4 0;
#X connect 7 1 3 0;
#X connect 8 0 7 0;
#X connect 10 0 8 0;
#X restore 360 204 pd vel_sens;
#N canvas 0 23 519 371 vel_sens 0;
#X obj 136 46 inlet;
#X obj 131 257 outlet;
#X obj 124 175 max 127;
#X msg 192 183 0;
#X msg 191 159 127;
#X text 224 159 off;
#X text 228 181 on;
#X obj 193 127 sel 0 1;
#X obj 195 104 tgl 15 0 empty empty empty 17 7 0 10 -262144 -1 -1 1
1;
#X text 213 101 velocity sensitivity on/off;
#X obj 201 48 r velocity_sensitive;
#X connect 0 0 2 0;
#X connect 2 0 1 0;
#X connect 3 0 2 1;
#X connect 4 0 2 1;
#X connect 7 0 4 0;
#X connect 7 1 3 0;
#X connect 8 0 7 0;
#X connect 10 0 8 0;
#X restore 724 157 pd vel_sens;
#X connect 0 0 4 0;
#X connect 1 0 2 0;
#X connect 2 0 0 0;
#X connect 3 0 0 0;
#X connect 3 1 20 0;
#X connect 4 0 9 0;
#X connect 5 0 4 1;
#X connect 7 0 16 0;
#X connect 7 0 34 0;
#X connect 8 0 12 0;
#X connect 8 0 14 0;
#X connect 9 0 43 0;
#X connect 9 0 6 0;
#X connect 10 0 9 1;
#X connect 11 0 10 0;
#X connect 12 0 21 0;
#X connect 13 0 12 1;
#X connect 13 0 14 1;
#X connect 14 0 15 0;
#X connect 15 0 22 0;
#X connect 16 0 17 0;
#X connect 16 1 11 0;
#X connect 17 0 3 0;
#X connect 17 2 44 0;
#X connect 17 3 18 0;
#X connect 18 0 42 0;
#X connect 20 0 1 0;
#X connect 23 0 10 0;
#X connect 24 0 0 0;
#X connect 25 0 29 0;
#X connect 26 0 27 0;
#X connect 27 0 25 0;
#X connect 28 0 25 0;
#X connect 28 1 40 0;
#X connect 29 0 31 0;
#X connect 30 0 29 1;
#X connect 31 0 41 0;
#X connect 32 0 31 1;
#X connect 33 0 32 0;
#X connect 34 0 35 0;
#X connect 34 1 33 0;
#X connect 35 0 28 0;
#X connect 35 2 45 0;
#X connect 35 3 36 0;
#X connect 38 0 32 0;
#X connect 39 0 25 0;
#X connect 40 0 26 0;
#X connect 42 0 43 1;
#X connect 43 0 41 0;
#X connect 44 0 5 0;
#X connect 45 0 30 0;
