#N canvas 395 258 245 234 12;
#X declare -path samples -path lib;
#X floatatom 22 150 5 0 0 0 - num_voices -, f 5;
#X obj 25 171 hsl 128 15 0 36 0 0 empty empty empty -2 -8 0 10 -262144
-1 -1 0 1;
#X floatatom 73 68 0 0 0 0 - velocity_set velocity;
#X floatatom 27 68 0 0 0 0 - pitch_set pitch;
#X floatatom 120 68 0 0 0 0 - channel_set channel;
#X obj 179 67 vu 15 120 mtr_l empty -1 -8 0 10 -66577 -1 0 0;
#X obj 196 67 vu 15 120 mtr_r empty -1 -8 0 10 -66577 -1 0 0;
#X text 33 27 www.making-sound.co.uk;
#N canvas 306 98 541 300 help 0;
#X restore 130 205 pd help;
#X text 20 87 pitch;
#X text 72 88 vel;
#X text 107 88 channel;
#X text 75 7 One-shot 0.1;
#X text 65 148 active voices;
#X obj 59 119 tgl 15 0 ready_tog ready_tog_set empty 17 7 0 12 -262144
-1 -1 1 1;
#X text 76 117 Ready;
#X text 10 46 --------------------------;
#X text 11 185 --------------------------;
#N canvas 600 88 502 545 guts 0;
#X obj 209 176 text define keymap;
#X obj 187 186 bng 15 250 50 0 empty empty empty 17 7 0 10 -262144
-1 -1;
#X msg 209 149 read -c keymap.txt \, bang;
#X obj 124 90 bng 15 250 50 0 empty empty empty 17 7 0 10 -262144 -1
-1;
#N canvas 133 164 552 536 midi_in 0;
#X obj 25 16 notein;
#X obj 23 97 stripnote;
#X obj 84 435 outlet;
#X obj 25 247 array get keys;
#X text 152 437 buf id \, length \, vel \, channels;
#X floatatom 25 272 5 0 0 0 - - -, f 5;
#X obj 77 332 text get keymap;
#X msg 87 400 \$4 \$2 \$5 \$3;
#X obj 86 364 list append;
#N canvas 0 23 529 335 test_channel 0;
#X obj 179 91 ==;
#X obj 38 145 spigot;
#X obj 210 48 r midi_channel;
#X obj 200 122 ||;
#X obj 221 89 expr if($f1==0 \, 1 \, 0);
#X text 329 50 0 = all channels;
#X obj 39 12 inlet;
#X obj 94 13 inlet;
#X obj 153 11 inlet;
#X obj 42 68 pack f f;
#X obj 39 189 unpack f f;
#X obj 29 227 outlet;
#X obj 85 229 outlet;
#X connect 0 0 3 0;
#X connect 1 0 10 0;
#X connect 2 0 0 1;
#X connect 2 0 4 0;
#X connect 3 0 1 1;
#X connect 4 0 3 1;
#X connect 6 0 9 0;
#X connect 7 0 9 1;
#X connect 8 0 0 0;
#X connect 9 0 1 0;
#X connect 10 0 11 0;
#X connect 10 1 12 0;
#X restore 21 55 pd test_channel;
#N canvas 0 23 450 300 test_for_all_off_key 0;
#X obj 106 81 r all_off_key;
#X floatatom 106 106 5 0 0 0 - - -, f 5;
#X obj 69 130 sel 0;
#X obj 69 157 s all_off;
#X obj 35 46 inlet;
#X obj 38 74 t f f;
#X obj 33 188 outlet;
#X connect 0 0 1 0;
#X connect 1 0 2 1;
#X connect 2 0 3 0;
#X connect 4 0 5 0;
#X connect 5 0 6 0;
#X connect 5 1 2 0;
#X restore 23 131 pd test_for_all_off_key;
#X floatatom 219 297 5 0 0 0 - - -, f 5;
#X text 262 296 velocity;
#N canvas 144 220 450 300 same_key_twice_in_a_row 0;
#X obj 35 16 inlet;
#X obj 44 256 outlet;
#X obj 99 70 t f f;
#X obj 103 99 !=;
#X obj 103 127 tgl 15 0 empty empty empty 17 7 0 10 -262144 -1 -1 0
1;
#X text 120 124 same note twice;
#X obj 38 213 spigot;
#X obj 266 100 r same_key_twice;
#X obj 113 159 ||;
#X obj 113 187 tgl 15 0 empty empty empty 17 7 0 10 -262144 -1 -1 0
1;
#X obj 267 147 tgl 15 0 empty empty empty 17 7 0 10 -262144 -1 -1 1
1;
#X connect 0 0 2 0;
#X connect 0 0 6 0;
#X connect 2 0 3 1;
#X connect 2 1 3 0;
#X connect 3 0 4 0;
#X connect 4 0 8 0;
#X connect 6 0 1 0;
#X connect 7 0 10 0;
#X connect 8 0 9 0;
#X connect 9 0 6 1;
#X connect 10 0 8 1;
#X restore 24 171 pd same_key_twice_in_a_row;
#N canvas 285 68 448 400 debounce 0;
#X obj 38 41 inlet;
#X obj 39 339 outlet;
#N canvas 0 23 450 300 ignore 0;
#X obj 42 52 inlet;
#X obj 41 224 outlet;
#X obj 41 175 t b b;
#X msg 94 111 0;
#X obj 41 134 spigot 1;
#X msg 126 111 1;
#X obj 73 198 del \$1;
#X obj 190 52 inlet;
#X text 192 31 (float) ignore duration (ms);
#X text 41 32 (bang);
#X text 41 248 (bang);
#X obj 119 53 inlet;
#X text 118 33 reset;
#X obj 121 82 t b b;
#X connect 0 0 4 0;
#X connect 2 0 3 0;
#X connect 2 0 1 0;
#X connect 2 1 6 0;
#X connect 3 0 4 1;
#X connect 4 0 2 0;
#X connect 5 0 4 1;
#X connect 6 0 5 0;
#X connect 7 0 6 1;
#X connect 11 0 13 0;
#X connect 13 0 5 0;
#X restore 42 238 pd ignore;
#X floatatom 264 214 5 0 0 0 - - -, f 5;
#X obj 41 208 t b f;
#X obj 41 267 f;
#X obj 265 183 r debounce;
#X obj 149 191 bng 15 250 50 0 empty empty empty 17 7 0 10 -262144
-1 -1;
#X text 163 188 reset;
#X obj 146 109 t f f;
#X obj 149 139 != 0;
#X obj 149 164 sel 1;
#X obj 42 73 t f f;
#X text 133 32 ignore consecutive same notes within debounce duration
(ms), f 31;
#X connect 0 0 12 0;
#X connect 2 0 5 0;
#X connect 3 0 2 2;
#X connect 4 0 2 0;
#X connect 4 1 5 1;
#X connect 5 0 1 0;
#X connect 6 0 3 0;
#X connect 7 0 2 1;
#X connect 9 0 10 1;
#X connect 9 1 10 0;
#X connect 10 0 11 0;
#X connect 11 0 7 0;
#X connect 12 0 4 0;
#X connect 12 1 9 0;
#X restore 24 211 pd debounce;
#X obj 26 302 moses 0;
#X connect 0 0 9 0;
#X connect 0 1 9 1;
#X connect 0 2 9 2;
#X connect 1 0 10 0;
#X connect 1 1 11 0;
#X connect 3 0 5 0;
#X connect 5 0 15 0;
#X connect 6 0 8 0;
#X connect 7 0 2 0;
#X connect 8 0 7 0;
#X connect 9 0 1 0;
#X connect 9 1 1 1;
#X connect 10 0 13 0;
#X connect 11 0 8 1;
#X connect 13 0 14 0;
#X connect 14 0 3 0;
#X connect 15 1 6 0;
#X restore 121 300 pd midi_in;
#N canvas 185 103 668 570 voice_allocation 0;
#X obj 87 38 inlet;
#X floatatom 86 213 5 0 0 0 - - -, f 5;
#X text 129 211 voice;
#N canvas 624 69 601 553 get_voice 0;
#X floatatom 236 131 5 0 0 0 - - -, f 5;
#X text 277 130 id;
#X floatatom 408 156 5 0 0 0 - - -, f 5;
#X text 449 155 length;
#X obj 275 216 + 1;
#X obj 237 232 f;
#X floatatom 238 287 5 0 0 0 - - -, f 5;
#X text 282 287 unique 'pitch';
#X floatatom 408 269 8 0 0 0 - - -, f 8;
#X text 476 267 dur (ms);
#X obj 238 388 stripnote;
#X floatatom 238 421 5 0 0 0 - - -, f 5;
#X text 282 419 voice;
#X obj 236 175 t b f;
#X obj 240 43 inlet;
#X obj 238 496 outlet;
#X obj 366 359 expr if($f1>0 \, 1 \, -1);
#X obj 364 424 f;
#X obj 395 423 + 1;
#X obj 365 389 t b f;
#X floatatom 386 465 5 0 0 0 - - -, f 5;
#X text 430 464 active voices;
#X obj 385 497 outlet;
#N canvas 0 23 260 316 samps_to_ms 0;
#X obj 39 26 inlet;
#X obj 106 94 samplerate~;
#X obj 106 67 r pd-dsp-started;
#X floatatom 106 121 7 0 0 0 - - -, f 7;
#X obj 32 179 /;
#X obj 102 144 / 1000;
#X obj 32 204 outlet;
#X connect 0 0 4 0;
#X connect 1 0 3 0;
#X connect 2 0 1 0;
#X connect 3 0 5 0;
#X connect 4 0 6 0;
#X connect 5 0 4 1;
#X restore 408 241 pd samps_to_ms;
#X msg 40 290 stop;
#X obj 40 154 r all_off;
#X obj 275 242 mod 128;
#X obj 238 315 makenote 64 1000;
#X obj 237 80 unpack f f f f;
#X obj 238 343 poly 24 0;
#X obj 62 201 r fade_dur;
#X obj 39 235 del;
#X connect 0 0 13 0;
#X connect 2 0 23 0;
#X connect 4 0 26 0;
#X connect 5 0 4 0;
#X connect 5 0 6 0;
#X connect 6 0 27 0;
#X connect 8 0 27 2;
#X connect 10 0 11 0;
#X connect 11 0 15 0;
#X connect 13 0 5 0;
#X connect 14 0 28 0;
#X connect 16 0 19 0;
#X connect 17 0 18 0;
#X connect 18 0 17 1;
#X connect 18 0 20 0;
#X connect 19 0 17 0;
#X connect 19 1 18 1;
#X connect 20 0 22 0;
#X connect 23 0 8 0;
#X connect 24 0 29 0;
#X connect 25 0 31 0;
#X connect 26 0 5 1;
#X connect 27 0 29 0;
#X connect 27 1 29 1;
#X connect 28 0 0 0;
#X connect 28 1 2 0;
#X connect 29 0 10 0;
#X connect 29 2 10 1;
#X connect 29 2 16 0;
#X connect 30 0 31 1;
#X connect 31 0 24 0;
#X restore 86 183 pd get_voice;
#X obj 86 154 t l l;
#N canvas 0 23 450 300 voice_minus_1 0;
#X obj 52 55 list split 1;
#X obj 52 81 - 1;
#X obj 52 106 list append;
#X obj 52 24 inlet;
#X obj 52 131 outlet;
#X connect 0 0 1 0;
#X connect 0 1 2 1;
#X connect 1 0 2 0;
#X connect 2 0 4 0;
#X connect 3 0 0 0;
#X restore 85 390 pd voice_minus_1;
#X floatatom 193 184 5 0 0 0 - - -, f 5;
#X obj 85 427 outlet;
#X text 237 184 num voices;
#X obj 188 20 r all_off;
#X obj 293 21 r fade_dur;
#X obj 270 55 del;
#X obj 85 108 spigot 1;
#X msg 188 80 0;
#X msg 270 80 1;
#X obj 86 239 list append;
#X text 30 365 voice \, buf id \, length \, vel \, channels;
#X text 2 62 buf id \, length \, vel \, ch;
#X floatatom 349 220 5 0 0 0 - - -, f 5;
#X text 392 218 voice;
#N canvas 398 69 601 553 get_voice 0;
#X floatatom 150 129 5 0 0 0 - - -, f 5;
#X text 191 128 id;
#X floatatom 322 154 5 0 0 0 - - -, f 5;
#X text 363 153 length;
#X obj 189 214 + 1;
#X obj 151 230 f;
#X floatatom 152 285 5 0 0 0 - - -, f 5;
#X text 196 285 unique 'pitch';
#X floatatom 322 267 8 0 0 0 - - -, f 8;
#X text 390 265 dur (ms);
#X obj 152 386 stripnote;
#X floatatom 152 419 5 0 0 0 - - -, f 5;
#X text 196 417 voice;
#X obj 150 173 t b f;
#X obj 154 41 inlet;
#X obj 152 494 outlet;
#X obj 280 357 expr if($f1>0 \, 1 \, -1);
#X obj 278 422 f;
#X obj 309 421 + 1;
#X obj 279 387 t b f;
#X floatatom 300 463 5 0 0 0 - - -, f 5;
#X text 344 462 active voices;
#X obj 299 495 outlet;
#N canvas 0 23 260 316 samps_to_ms 0;
#X obj 39 26 inlet;
#X obj 106 94 samplerate~;
#X obj 106 67 r pd-dsp-started;
#X floatatom 106 121 7 0 0 0 - - -, f 7;
#X obj 32 179 /;
#X obj 102 144 / 1000;
#X obj 32 204 outlet;
#X connect 0 0 4 0;
#X connect 1 0 3 0;
#X connect 2 0 1 0;
#X connect 3 0 5 0;
#X connect 4 0 6 0;
#X connect 5 0 4 1;
#X restore 322 239 pd samps_to_ms;
#X msg 51 288 stop;
#X obj 51 264 r all_off;
#X obj 189 240 mod 128;
#X obj 152 313 makenote 64 1000;
#X obj 151 78 unpack f f f f;
#X obj 152 341 poly 24 1;
#X connect 0 0 13 0;
#X connect 2 0 23 0;
#X connect 4 0 26 0;
#X connect 5 0 4 0;
#X connect 5 0 6 0;
#X connect 6 0 27 0;
#X connect 8 0 27 2;
#X connect 10 0 11 0;
#X connect 11 0 15 0;
#X connect 13 0 5 0;
#X connect 14 0 28 0;
#X connect 16 0 19 0;
#X connect 17 0 18 0;
#X connect 18 0 17 1;
#X connect 18 0 20 0;
#X connect 19 0 17 0;
#X connect 19 1 18 1;
#X connect 20 0 22 0;
#X connect 23 0 8 0;
#X connect 24 0 29 0;
#X connect 25 0 24 0;
#X connect 26 0 5 1;
#X connect 27 0 29 0;
#X connect 27 1 29 1;
#X connect 28 0 0 0;
#X connect 28 1 2 0;
#X connect 29 0 10 0;
#X connect 29 2 10 1;
#X connect 29 2 16 0;
#X restore 349 190 pd get_voice;
#X obj 349 161 t l l;
#X floatatom 456 191 5 0 0 0 - - -, f 5;
#X text 500 191 num voices;
#X obj 349 246 list append;
#X obj 85 335 spigot 1;
#X obj 349 332 spigot 0;
#X obj 478 252 r voice_stealing;
#X obj 478 281 tgl 15 0 empty empty empty 17 7 0 10 -262144 -1 -1 0
1;
#X obj 156 335 != 1;
#X obj 205 334 spigot 1;
#X obj 276 334 != 1;
#X obj 439 330 spigot 0;
#X obj 356 429 s num_voices;
#X connect 0 0 12 0;
#X connect 1 0 15 0;
#X connect 3 0 1 0;
#X connect 3 1 6 0;
#X connect 4 0 3 0;
#X connect 4 1 15 1;
#X connect 5 0 7 0;
#X connect 6 0 30 0;
#X connect 9 0 13 0;
#X connect 9 0 11 0;
#X connect 10 0 11 1;
#X connect 11 0 14 0;
#X connect 12 0 4 0;
#X connect 12 0 21 0;
#X connect 13 0 12 1;
#X connect 14 0 12 1;
#X connect 15 0 25 0;
#X connect 18 0 24 0;
#X connect 20 0 18 0;
#X connect 20 1 22 0;
#X connect 21 0 20 0;
#X connect 21 1 24 1;
#X connect 22 0 32 0;
#X connect 24 0 26 0;
#X connect 25 0 5 0;
#X connect 26 0 5 0;
#X connect 27 0 28 0;
#X connect 28 0 26 1;
#X connect 28 0 29 0;
#X connect 28 0 32 1;
#X connect 28 0 31 0;
#X connect 29 0 25 1;
#X connect 30 0 33 0;
#X connect 31 0 30 1;
#X connect 32 0 33 0;
#X restore 121 330 pd voice_allocation;
#X obj 121 426 dac~ 1 2;
#X obj 64 473 clone buffers 88;
#X obj 166 215 bng 15 250 50 0 empty empty empty 17 7 0 10 -262144
-1 -1;
#N canvas 0 23 450 300 create_key_line_map 0;
#X obj 81 76 array define keys 128;
#X obj 24 267 array set keys;
#X obj 29 103 text size keymap;
#X obj 29 81 bng 15 250 50 0 empty empty empty 17 7 0 10 -262144 -1
-1;
#X floatatom 29 130 5 0 0 0 - - -, f 5;
#X obj 30 55 t b b;
#N canvas 423 23 275 335 count 0;
#X obj 76 40 inlet;
#X obj 75 99 until;
#X obj 76 70 t f b;
#X obj 76 167 f;
#X obj 108 166 + 1;
#X msg 143 103 0;
#X obj 76 249 outlet;
#X obj 76 192 t f f;
#X connect 0 0 2 0;
#X connect 1 0 3 0;
#X connect 2 0 1 0;
#X connect 2 1 5 0;
#X connect 3 0 7 0;
#X connect 4 0 3 1;
#X connect 5 0 3 1;
#X connect 7 0 6 0;
#X connect 7 1 4 0;
#X restore 29 157 pd count;
#X obj 68 212 text get keymap;
#X obj 32 187 t f f;
#X msg 69 239 \$1;
#X text 102 241 pitch;
#X msg 80 51 const -1;
#X obj 34 27 inlet;
#X connect 2 0 4 0;
#X connect 3 0 2 0;
#X connect 4 0 6 0;
#X connect 5 0 3 0;
#X connect 5 1 11 0;
#X connect 6 0 8 0;
#X connect 7 0 9 0;
#X connect 8 0 1 0;
#X connect 8 1 7 0;
#X connect 9 0 1 1;
#X connect 11 0 0 0;
#X connect 12 0 5 0;
#X restore 166 235 pd create_key_line_map;
#X obj 145 240 bng 15 250 50 0 empty empty empty 17 7 0 10 -262144
-1 -1;
#N canvas 305 23 351 507 settings 0;
#X obj 54 27 inlet;
#X obj 103 140 text define settings;
#X msg 102 110 read -c settings.txt;
#X obj 67 171 text size settings;
#X obj 68 145 bng 15 250 50 0 empty empty empty 17 7 0 10 -262144 -1
-1;
#X floatatom 67 202 5 0 0 0 - - -, f 5;
#X obj 67 229 t f b;
#X obj 67 261 until;
#X msg 115 261 0;
#X obj 67 297 f;
#X obj 99 298 + 1;
#X obj 67 330 text get settings;
#X obj 67 81 t b b;
#X obj 68 437 send;
#X msg 68 381 \$2 \$1;
#X obj 68 406 unpack f s;
#X connect 0 0 12 0;
#X connect 2 0 1 0;
#X connect 3 0 5 0;
#X connect 4 0 3 0;
#X connect 5 0 6 0;
#X connect 6 0 7 0;
#X connect 6 1 8 0;
#X connect 7 0 9 0;
#X connect 8 0 9 1;
#X connect 9 0 10 0;
#X connect 9 0 11 0;
#X connect 10 0 9 1;
#X connect 11 0 14 0;
#X connect 12 0 4 0;
#X connect 12 1 2 0;
#X connect 14 0 15 0;
#X connect 15 0 13 0;
#X connect 15 1 13 1;
#X restore 145 261 pd settings;
#X obj 121 360 clone oneshotsampler 24;
#X obj 64 498 declare -path samples -path lib;
#X obj 124 28 loadbang;
#N canvas 251 45 915 688 get_info_load_buffers 0;
#X obj 280 45 text size keymap;
#X floatatom 280 72 5 0 0 0 - - -, f 5;
#X floatatom 256 158 5 0 0 0 - - -, f 5;
#X obj 256 180 text get keymap;
#N canvas 423 23 275 335 count 0;
#X obj 76 40 inlet;
#X obj 75 99 until;
#X obj 76 70 t f b;
#X obj 76 167 f;
#X obj 108 166 + 1;
#X msg 143 103 0;
#X obj 76 249 outlet;
#X obj 76 192 t f f;
#X connect 0 0 2 0;
#X connect 1 0 3 0;
#X connect 2 0 1 0;
#X connect 2 1 5 0;
#X connect 3 0 7 0;
#X connect 4 0 3 1;
#X connect 5 0 3 1;
#X connect 7 0 6 0;
#X connect 7 1 4 0;
#X restore 273 105 pd count;
#X text 323 70 num lines;
#X obj 274 131 t f f;
#X obj 292 454 soundfiler;
#X obj 286 303 unpack s f;
#X obj 293 425 list trim;
#X floatatom 289 499 5 0 0 0 - - -, f 5;
#X text 335 498 size;
#X msg 387 475 \$3;
#X floatatom 387 502 5 0 0 0 - - -, f 5;
#X text 431 499 num channels;
#X text 301 157 id;
#X obj 257 214 list prepend;
#X msg 286 274 \$3 \$1;
#X floatatom 169 389 5 0 0 0 - - -, f 5;
#X text 105 386 pitch;
#X obj 252 245 t l l;
#X text 336 274 file \, id;
#X text 358 216 id \, pitch \, file;
#X obj 268 600 t l l;
#X obj 246 666 text set keymap;
#X obj 299 630 list split 1;
#X obj 197 630 list split 1;
#X text 408 544 line \, pitch \, size \, channels \, buf name;
#X obj 155 311 unpack f f s;
#X text 374 665 pitch \, size \, num channels \, buf name;
#X obj 280 3 inlet;
#X floatatom 553 502 5 0 0 0 - - -, f 5;
#X text 601 499 buf id;
#X obj 266 544 pack f f f f f;
#X obj 348 334 makefilename buf%d_l;
#X obj 339 11 t b b;
#X msg 399 11 \; clear_bufs bang;
#X obj 297 366 pack s s s;
#X obj 413 359 makefilename buf%d_r;
#X obj 293 400 list prepend read -maxsize 1e+09 -resize;
#X connect 0 0 1 0;
#X connect 1 0 4 0;
#X connect 2 0 3 0;
#X connect 3 0 16 0;
#X connect 4 0 6 0;
#X connect 6 0 2 0;
#X connect 6 1 16 1;
#X connect 7 0 10 0;
#X connect 7 1 12 0;
#X connect 8 0 37 0;
#X connect 8 1 31 0;
#X connect 8 1 34 0;
#X connect 8 1 38 0;
#X connect 9 0 7 0;
#X connect 10 0 33 2;
#X connect 12 0 13 0;
#X connect 13 0 33 3;
#X connect 16 0 20 0;
#X connect 17 0 8 0;
#X connect 18 0 33 0;
#X connect 20 0 28 0;
#X connect 20 1 17 0;
#X connect 23 0 26 0;
#X connect 23 1 25 0;
#X connect 25 0 24 1;
#X connect 26 1 24 0;
#X connect 28 0 18 0;
#X connect 28 1 33 1;
#X connect 30 0 35 0;
#X connect 31 0 33 4;
#X connect 33 0 23 0;
#X connect 34 0 37 1;
#X connect 35 0 0 0;
#X connect 35 1 36 0;
#X connect 37 0 39 0;
#X connect 38 0 37 2;
#X connect 39 0 9 0;
#X restore 187 206 pd get_info_load_buffers;
#N canvas 0 23 450 300 mtr 0;
#X obj 31 40 env~ 8820;
#X obj 77 84 - 88;
#X obj 31 62 moses 1;
#X msg 31 84 -100;
#X obj 31 18 inlet~;
#X obj 138 38 env~ 8820;
#X obj 184 82 - 88;
#X obj 138 60 moses 1;
#X msg 138 82 -100;
#X obj 138 16 inlet~;
#X obj 31 135 s mtr_l;
#X obj 138 135 s mtr_r;
#X connect 0 0 2 0;
#X connect 1 0 10 0;
#X connect 2 0 3 0;
#X connect 2 1 1 0;
#X connect 3 0 10 0;
#X connect 4 0 0 0;
#X connect 5 0 7 0;
#X connect 6 0 11 0;
#X connect 7 0 8 0;
#X connect 7 1 6 0;
#X connect 8 0 11 0;
#X connect 9 0 5 0;
#X restore 148 395 pd mtr;
#X text 142 86 reload everything;
#X obj 124 56 del 500;
#X obj 15 160 bng 15 250 50 0 empty empty empty 17 7 0 10 -262144 -1
-1;
#X obj 124 120 t b b b b b;
#X msg 15 181 \; pd dsp 1 \; ready_tog_set 1;
#X obj 324 20 notein;
#X obj 324 98 s pitch_set;
#X obj 346 72 s velocity_set;
#X obj 369 47 s channel_set;
#X connect 1 0 15 0;
#X connect 2 0 0 0;
#X connect 3 0 20 0;
#X connect 4 0 5 0;
#X connect 5 0 12 0;
#X connect 8 0 9 0;
#X connect 10 0 11 0;
#X connect 12 0 6 0;
#X connect 12 0 16 0;
#X connect 12 1 6 1;
#X connect 12 1 16 1;
#X connect 14 0 18 0;
#X connect 18 0 3 0;
#X connect 19 0 21 0;
#X connect 20 0 19 0;
#X connect 20 1 10 0;
#X connect 20 2 8 0;
#X connect 20 3 1 0;
#X connect 20 4 2 0;
#X connect 22 0 23 0;
#X connect 22 1 24 0;
#X connect 22 2 25 0;
#X restore 42 205 pd guts;
#X connect 0 0 1 0;
